<?xml version="1.0" encoding="utf-8"?>
<!-- Generator: Adobe Illustrator 25.4.1, SVG Export Plug-In . SVG Version: 6.00 Build 0)  -->
<svg version="1.1" id="Layer_1" xmlns="http://www.w3.org/2000/svg" xmlns:xlink="http://www.w3.org/1999/xlink" x="0px" y="0px"
	 viewBox="0 0 100 100" style="enable-background:new 0 0 100 100;" xml:space="preserve">
<style type="text/css">
	.st0{stroke:#FFFFFF;stroke-miterlimit:10;}
	.st1{fill:#FFFFFF;}
	.st2{fill:#FFF200;}
	.st3{opacity:0.47;fill:#FFFFFF;}
</style>
<circle class="st0" cx="50" cy="50" r="47.61"/>
<g>
	<path class="st1" d="M54.87,34.99l-12.45,22.5c-0.83,1.49-2.1,2.23-3.81,2.23h-2.2V44.1l-8.65,13.46c-0.93,1.44-2.29,2.16-4.1,2.16
		h-2.5l1.85-20.3h-8.17l2.71-4.43h7.77c0.95,0,1.76,0.22,2.44,0.65c0.91,0.6,1.37,1.53,1.37,2.79c0,0.19-0.01,0.38-0.04,0.58
		l-1.27,11.92l8.38-13.31c0.6-0.95,1.13-1.59,1.6-1.93c0.66-0.47,1.55-0.7,2.69-0.7h1.72v15.59l8.44-15.59H54.87z"/>
	<path class="st1" d="M85.16,38.23c0,1.22-0.48,2.24-1.44,3.06c-0.91,0.77-1.98,1.16-3.2,1.16c-0.82,0-1.64-0.21-2.45-0.64
		s-1.44-0.98-1.87-1.66l-5.94,6.22l2.78,10.55h9.18c-0.15,0.93-0.71,1.65-1.67,2.16c-0.81,0.43-1.73,0.65-2.76,0.65h-6.91
		c-1.14,0-2.12-0.35-2.95-1.04c-0.77-0.67-1.32-1.56-1.65-2.67l-1.2-4.06l-5.61,5.85c-1.52,1.59-3.16,2.39-4.9,2.39
		c-1.23,0-2.31-0.39-3.23-1.16c-0.96-0.82-1.44-1.84-1.44-3.06c0-1.17,0.46-2.17,1.37-2.99s2.02-1.23,3.3-1.23
		c1.95,0,3.35,0.81,4.22,2.43l5.36-5.62l-2.16-9.14h-8.74l2.65-4.43h7.38c3.05,0,4.83,1.27,5.36,3.81l0.86,4.15l5.26-5.48
		c1.27-1.31,2.1-2.12,2.5-2.41c0.95-0.69,2.03-1.04,3.23-1.04c1.24,0,2.32,0.39,3.23,1.16C84.68,35.99,85.16,37.01,85.16,38.23z"/>
</g>
<g>
	<g>
		<path class="st2" d="M29.83,70.01c-0.7,0.1-0.8,0.18-1.07,1c-0.33,1-1.13,3.54-1.68,5.33h-0.34c-0.52-1.56-1.19-3.49-1.71-4.97
			c-0.58,1.72-1.17,3.43-1.69,4.97h-0.33c-0.5-1.72-1.07-3.59-1.61-5.34c-0.26-0.81-0.37-0.92-1.02-0.99v-0.28h2.47v0.28
			c-0.74,0.08-0.76,0.19-0.62,0.69c0.39,1.35,0.79,2.68,1.2,4.09c0.55-1.59,1.15-3.33,1.66-4.97h0.32c0.56,1.7,1.12,3.28,1.7,4.98
			c0.42-1.33,0.99-3.11,1.21-3.98c0.15-0.58,0.07-0.71-0.78-0.81v-0.28h2.29V70.01z"/>
		<path class="st2" d="M31.59,71.72c1.25,0,2.18,0.95,2.18,2.24c0,1.62-1.2,2.39-2.18,2.39c-1.38,0-2.22-1.11-2.22-2.23
			C29.37,72.49,30.64,71.72,31.59,71.72z M31.47,72.06c-0.61,0-1.16,0.59-1.16,1.75c0,1.27,0.56,2.19,1.38,2.19
			c0.62,0,1.14-0.45,1.14-1.82C32.83,73.01,32.35,72.06,31.47,72.06z"/>
		<path class="st2" d="M36.72,76.23h-2.3v-0.28c0.63-0.06,0.69-0.11,0.69-0.76v-2.08c0-0.66-0.04-0.69-0.62-0.76V72.1
			c0.49-0.08,0.94-0.2,1.41-0.41c0,0.33,0,0.77,0,1.1c0.35-0.52,0.77-1.07,1.27-1.07c0.37,0,0.58,0.23,0.58,0.48
			c0,0.23-0.16,0.45-0.34,0.55c-0.1,0.06-0.18,0.05-0.26-0.02c-0.15-0.15-0.27-0.25-0.45-0.25c-0.21,0-0.58,0.31-0.8,0.82v1.88
			c0,0.66,0.05,0.71,0.82,0.77V76.23z"/>
		<path class="st2" d="M37.87,76.23v-0.28c0.64-0.06,0.72-0.11,0.72-0.77v-4.79c0-0.61-0.05-0.67-0.69-0.75v-0.26
			c0.54-0.06,1.16-0.22,1.48-0.34c0,0.47,0,0.95,0,1.42v4.72c0,0.66,0.06,0.71,0.71,0.77v0.28H37.87z"/>
		<path class="st2" d="M45.45,75.98c-0.21,0.04-0.96,0.16-1.55,0.37c0-0.21,0-0.44,0-0.65c-0.18,0.11-0.44,0.25-0.62,0.36
			c-0.4,0.23-0.67,0.29-0.79,0.29c-0.8,0-1.86-0.8-1.86-2.2c0-1.39,1.22-2.43,2.59-2.43c0.14,0,0.47,0.02,0.68,0.11v-1.47
			c0-0.64-0.07-0.66-0.78-0.72v-0.26c0.5-0.07,1.2-0.21,1.57-0.34c0,0.37,0,0.81,0,1.22v4.81c0,0.52,0.07,0.59,0.44,0.61l0.32,0.02
			V75.98z M43.9,72.62c-0.23-0.35-0.66-0.51-1.05-0.51c-0.48,0-1.33,0.32-1.33,1.76c0,1.21,0.75,1.85,1.39,1.86
			c0.36,0,0.75-0.18,0.99-0.36V72.62z"/>
		<path class="st2" d="M51.45,76.23v-0.28c0.62-0.07,0.68-0.17,0.5-0.5c-0.23-0.39-0.67-1.14-1.29-2.12
			c-0.47,0.73-0.91,1.42-1.24,2.01c-0.23,0.42-0.15,0.53,0.52,0.61v0.28h-2.33v-0.28c0.6-0.06,0.88-0.21,1.17-0.58
			c0.37-0.48,0.77-1.06,1.64-2.4c-0.52-0.84-0.97-1.55-1.3-2.08c-0.43-0.67-0.56-0.8-1.29-0.88v-0.28h2.49v0.28
			c-0.62,0.06-0.64,0.17-0.48,0.44c0.32,0.56,0.69,1.14,1.13,1.82c0.39-0.6,0.75-1.17,1.01-1.63c0.24-0.43,0.17-0.55-0.49-0.63
			v-0.28h2.28v0.28c-0.75,0.1-0.93,0.18-1.36,0.79c-0.33,0.47-0.53,0.76-1.22,1.8c0.54,0.85,1.05,1.68,1.52,2.41
			c0.48,0.76,0.68,0.87,1.4,0.94v0.28H51.45z"/>
		<path class="st2" d="M54.31,72.05c0.47-0.07,0.99-0.24,1.45-0.43c0,0.24,0,0.56,0,0.8c0.03-0.02,0.83-0.48,0.87-0.5
			c0.24-0.13,0.45-0.2,0.58-0.2c1.1,0,1.77,0.92,1.77,1.91c0,1.52-1.2,2.48-2.51,2.72c-0.3-0.01-0.57-0.1-0.71-0.18v1.35
			c0,0.74,0.08,0.8,0.85,0.87v0.28h-2.37v-0.28c0.65-0.07,0.73-0.12,0.73-0.79v-4.55c0-0.6-0.02-0.64-0.66-0.73V72.05z M55.76,75.47
			c0.23,0.23,0.62,0.39,0.95,0.39c0.87,0,1.43-0.73,1.43-1.85c0-1.08-0.63-1.69-1.34-1.69c-0.35,0-0.77,0.23-1.04,0.43V75.47z"/>
		<path class="st2" d="M59.57,76.23v-0.28c0.64-0.06,0.72-0.11,0.72-0.77v-4.79c0-0.61-0.05-0.67-0.69-0.75v-0.26
			c0.54-0.06,1.16-0.22,1.48-0.34c0,0.47,0,0.95,0,1.42v4.72c0,0.66,0.06,0.71,0.71,0.77v0.28H59.57z"/>
		<path class="st2" d="M64.55,71.72c1.25,0,2.18,0.95,2.18,2.24c0,1.62-1.2,2.39-2.18,2.39c-1.38,0-2.22-1.11-2.22-2.23
			C62.33,72.49,63.6,71.72,64.55,71.72z M64.43,72.06c-0.61,0-1.16,0.59-1.16,1.75c0,1.27,0.56,2.19,1.38,2.19
			c0.62,0,1.14-0.45,1.14-1.82C65.79,73.01,65.31,72.06,64.43,72.06z"/>
		<path class="st2" d="M69.68,76.23h-2.3v-0.28c0.63-0.06,0.69-0.11,0.69-0.76v-2.08c0-0.66-0.04-0.69-0.62-0.76V72.1
			c0.49-0.08,0.94-0.2,1.41-0.41c0,0.33,0,0.77,0,1.1c0.35-0.52,0.77-1.07,1.27-1.07c0.37,0,0.58,0.23,0.58,0.48
			c0,0.23-0.16,0.45-0.34,0.55c-0.1,0.06-0.18,0.05-0.26-0.02c-0.15-0.15-0.27-0.25-0.45-0.25c-0.21,0-0.58,0.31-0.8,0.82v1.88
			c0,0.66,0.05,0.71,0.82,0.77V76.23z"/>
		<path class="st2" d="M74.68,75.38c-0.64,0.8-1.34,0.97-1.66,0.97c-1.22,0-1.96-1-1.96-2.15c0-0.68,0.24-1.31,0.65-1.75
			c0.42-0.47,0.97-0.73,1.49-0.73c0.87,0,1.53,0.75,1.53,1.55c-0.01,0.2-0.04,0.29-0.2,0.33c-0.2,0.04-1.48,0.13-2.67,0.17
			c-0.03,1.34,0.79,1.89,1.5,1.89c0.41,0,0.79-0.17,1.16-0.51L74.68,75.38z M72.96,72.1c-0.46,0-0.91,0.43-1.05,1.24
			c0.56,0,1.12,0,1.71-0.03c0.18,0,0.24-0.05,0.24-0.2C73.87,72.58,73.52,72.1,72.96,72.1z"/>
	</g>
	<g>
		<circle class="st3" cx="73.81" cy="74.05" r="3.35"/>
		<g>
			<g>
				
					<rect x="76.74" y="77.62" transform="matrix(0.8764 -0.4816 0.4816 0.8764 -28.04 46.6049)" class="st1" width="0.07" height="0.61"/>
				
					<rect x="76.16" y="77.88" transform="matrix(0.8764 -0.4816 0.4816 0.8764 -28.2212 46.4064)" class="st1" width="0.29" height="0.61"/>
				
					<rect x="76.52" y="77.74" transform="matrix(0.8765 -0.4815 0.4815 0.8765 -28.121 46.503)" class="st1" width="0.07" height="0.61"/>
				<path class="st1" d="M75.31,78.16l0.91-0.5l0.07-0.04l0,0l0.28-0.15l0.1,0.17l0.15-0.08l-0.32-0.58c1.32-1.21,1.7-3.2,0.8-4.84
					c-1.06-1.92-3.47-2.62-5.39-1.57c-1.92,1.06-2.62,3.47-1.57,5.39c0.92,1.68,2.89,2.43,4.65,1.88l0.3,0.55l0.75-0.41l-0.1-0.17
					L75.31,78.16z M73.81,77.33c-1.81,0-3.28-1.47-3.28-3.28c0-1.81,1.47-3.28,3.28-3.28c1.81,0,3.28,1.47,3.28,3.28
					C77.09,75.86,75.62,77.33,73.81,77.33z"/>
				
					<rect x="76.38" y="77.53" transform="matrix(0.8764 -0.4815 0.4815 0.8764 -27.9329 46.4156)" class="st1" width="0.18" height="0.2"/>
				<polygon class="st1" points="76.28,77.62 76.21,77.66 76.19,77.67 76.28,77.85 76.38,77.8 				"/>
				<path class="st1" d="M79.33,82.57c0.06-0.02,0.12-0.03,0.18-0.04l-2.43-4.42l-0.13,0.07l0.07,0.12l-0.02,0.01L79.33,82.57z"/>
				
					<rect x="76.09" y="78.58" transform="matrix(0.8764 -0.4815 0.4815 0.8764 -28.4544 46.4284)" class="st1" width="0.28" height="0.14"/>
				<polygon class="st1" points="76.89,78.21 76.89,78.21 76.82,78.25 				"/>
				
					<rect x="76.6" y="78.35" transform="matrix(0.8764 -0.4816 0.4816 0.8764 -28.29 46.6078)" class="st1" width="0.11" height="0.14"/>
				<path class="st1" d="M78.48,83.04c0.01-0.02,0.02-0.04,0.03-0.06c0.03-0.14,0.09-0.26,0.19-0.37c-0.04,0.01-0.07,0.03-0.11,0.05
					c0.13-0.07,0.26-0.1,0.39-0.11l-2.25-4.1l-0.09,0.05l0,0l-0.26,0.14l0,0l-0.25,0.14L78.48,83.04z"/>
				<polygon class="st1" points="75.56,78.94 76.07,78.66 76.07,78.66 				"/>
				<polygon class="st1" points="75.76,78.99 76.14,78.78 76.14,78.78 				"/>
				<polygon class="st1" points="76.82,78.25 76.73,78.3 76.73,78.3 				"/>
				<rect x="76.67" y="78.33" class="st1" width="0" height="0"/>
				
					<rect x="76.92" y="78.19" transform="matrix(0.8764 -0.4816 0.4816 0.8764 -28.1794 46.7245)" class="st1" width="0.04" height="0.14"/>
				<polygon class="st1" points="76.73,78.3 76.67,78.33 76.74,78.45 76.8,78.42 76.8,78.42 				"/>
				<polygon class="st1" points="76.96,78.33 76.96,78.33 76.8,78.42 				"/>
				
					<rect x="76.74" y="78.45" transform="matrix(0.7071 -0.7071 0.7071 0.7071 -32.9994 77.2391)" class="st1" width="0" height="0"/>
			</g>
			<g>
				
					<rect x="75.23" y="77.3" transform="matrix(0.8764 -0.4815 0.4815 0.8764 -28.0691 46.1714)" class="st1" width="1.38" height="0.95"/>
				
					<rect x="75.28" y="77.47" transform="matrix(0.8764 -0.4815 0.4815 0.8764 -28.1855 46.0436)" class="st1" width="0.69" height="0.95"/>
				
					<rect x="76.31" y="77.04" transform="matrix(0.8765 -0.4813 0.4813 0.8765 -27.8782 46.341)" class="st1" width="0.17" height="0.95"/>
				
					<rect x="76.16" y="77.14" transform="matrix(0.8763 -0.4817 0.4817 0.8763 -27.961 46.3072)" class="st1" width="0.1" height="0.95"/>
				<path class="st1" d="M79.51,82.56c0.23,0.42,0.09,0.94-0.31,1.16c-0.4,0.22-0.92,0.06-1.15-0.36c-0.23-0.42-0.09-0.94,0.31-1.16
					C78.76,81.98,79.28,82.14,79.51,82.56z"/>
				<path class="st1" d="M78.37,83.13c-0.18-0.33-0.13-0.72,0.09-0.98c-0.04,0.01-0.07,0.03-0.1,0.05c-0.4,0.22-0.55,0.74-0.31,1.16
					c0.23,0.42,0.75,0.58,1.15,0.36c0.09-0.05,0.16-0.11,0.23-0.19C79.04,83.69,78.59,83.52,78.37,83.13z"/>
				
					<rect x="76.54" y="77.59" transform="matrix(0.8764 -0.4815 0.4815 0.8764 -29.1781 47.2106)" class="st1" width="1.71" height="5.73"/>
				
					<rect x="76.66" y="77.99" transform="matrix(0.8764 -0.4816 0.4816 0.8764 -29.3938 47.0386)" class="st1" width="0.56" height="5.59"/>
				
					<rect x="77.75" y="77.47" transform="matrix(0.8764 -0.4816 0.4816 0.8764 -29.0285 47.4335)" class="st1" width="0.28" height="5.59"/>
				<path class="st1" d="M79.48,82.8c0.04,0.07,0.1,0.52-0.15,0.65c-0.25,0.14-0.71-0.09-0.75-0.16c-0.04-0.07,0.13-0.23,0.38-0.37
					C79.21,82.79,79.44,82.73,79.48,82.8z"/>
			</g>
		</g>
	</g>
</g>
</svg>
